<?xml version="1.0" encoding="UTF-8" standalone="no"?>
<!-- Created with Inkscape (http://www.inkscape.org/) -->

<svg
   width="210mm"
   height="297mm"
   viewBox="0 0 210 297"
   version="1.1"
   id="svg5"
   inkscape:version="1.2.2 (732a01da63, 2022-12-09)"
   sodipodi:docname="cardback.svg"
   xmlns:inkscape="http://www.inkscape.org/namespaces/inkscape"
   xmlns:sodipodi="http://sodipodi.sourceforge.net/DTD/sodipodi-0.dtd"
   xmlns="http://www.w3.org/2000/svg"
   xmlns:svg="http://www.w3.org/2000/svg">
  <sodipodi:namedview
     id="namedview7"
     pagecolor="#ffffff"
     bordercolor="#000000"
     borderopacity="0.25"
     inkscape:showpageshadow="2"
     inkscape:pageopacity="0.0"
     inkscape:pagecheckerboard="0"
     inkscape:deskcolor="#d1d1d1"
     inkscape:document-units="mm"
     showgrid="false"
     inkscape:zoom="1.3897306"
     inkscape:cx="385.32648"
     inkscape:cy="219.467"
     inkscape:window-width="1920"
     inkscape:window-height="974"
     inkscape:window-x="-11"
     inkscape:window-y="-11"
     inkscape:window-maximized="1"
     inkscape:current-layer="layer1" />
  <defs
     id="defs2">
    <inkscape:path-effect
       effect="powerstroke"
       id="path-effect17282"
       is_visible="true"
       lpeversion="1"
       offset_points="5,3.308564"
       not_jump="false"
       sort_points="true"
       interpolator_type="CubicBezierJohan"
       interpolator_beta="0.2"
       start_linecap_type="zerowidth"
       linejoin_type="extrp_arc"
       miter_limit="4"
       scale_width="1"
       end_linecap_type="zerowidth" />
    <inkscape:path-effect
       effect="spiro"
       id="path-effect17280"
       is_visible="true"
       lpeversion="1" />
    <inkscape:path-effect
       effect="skeletal"
       id="path-effect17229"
       is_visible="true"
       lpeversion="1"
       pattern="M 0,4.9921382 C 0,2.2364779 2.2364779,0 4.9921382,0 c 2.7556604,0 4.9921383,2.2364779 4.9921383,4.9921382 0,2.7556604 -2.2364779,4.9921383 -4.9921383,4.9921383 C 2.2364779,9.9842765 0,7.7477986 0,4.9921382 Z"
       copytype="single_stretched"
       prop_scale="1"
       scale_y_rel="false"
       spacing="0"
       normal_offset="0"
       tang_offset="0"
       prop_units="false"
       vertical_pattern="false"
       hide_knot="false"
       fuse_tolerance="0" />
    <inkscape:path-effect
       effect="spiro"
       id="path-effect17227"
       is_visible="true"
       lpeversion="1" />
    <inkscape:path-effect
       effect="skeletal"
       id="path-effect17061"
       is_visible="true"
       lpeversion="1"
       pattern="M 0,4.9921382 C 0,2.2364779 2.2364779,0 4.9921382,0 c 2.7556604,0 4.9921383,2.2364779 4.9921383,4.9921382 0,2.7556604 -2.2364779,4.9921383 -4.9921383,4.9921383 C 2.2364779,9.9842765 0,7.7477986 0,4.9921382 Z"
       copytype="single_stretched"
       prop_scale="1"
       scale_y_rel="false"
       spacing="0"
       normal_offset="0"
       tang_offset="0"
       prop_units="false"
       vertical_pattern="false"
       hide_knot="false"
       fuse_tolerance="0" />
    <inkscape:path-effect
       effect="spiro"
       id="path-effect17059"
       is_visible="true"
       lpeversion="1" />
    <linearGradient
       id="linearGradient6754"
       inkscape:swatch="solid">
      <stop
         style="stop-color:#00ffff;stop-opacity:1;"
         offset="0"
         id="stop6752" />
    </linearGradient>
    <inkscape:path-effect
       effect="fill_between_many"
       method="bsplinespiro"
       linkedpaths="#path17278,0,1"
       id="path-effect17284" />
  </defs>
  <g
     inkscape:label="图层 1"
     inkscape:groupmode="layer"
     id="layer1">
    <rect
       style="fill:#8c0000;fill-opacity:0.995283;stroke:#640000;stroke-width:4.634;stroke-linejoin:bevel;stroke-dasharray:none;stroke-opacity:0.603774;paint-order:stroke fill markers"
       id="rect840"
       width="45.366188"
       height="70.366196"
       x="2.3169999"
       y="2.3169999" />
    <path
       inkscape:original-d="M 0,0"
       inkscape:path-effect="#path-effect17284"
       d="m 29.531006,67.096424 c 4.449334,-0.204574 8.826118,-2.209733 11.973079,-5.48529 3.146962,-3.275557 5.030431,-7.786465 5.152395,-12.339988 0.121964,-4.553523 -1.51888,-9.100941 -4.488675,-12.439863 -2.969796,-3.338922 -7.236767,-5.433625 -11.672676,-5.730243 -4.617395,-0.308754 -9.363722,1.340956 -12.888145,4.479613 -3.524422,3.138656 -5.782772,7.726925 -6.132308,12.458953 z"
       id="path17286"
       style="fill:none;stroke:none"
       class="UnoptimicedTransforms"
       transform="matrix(1.0181165,0,0,1,-5.0003679,-11.994231)" />
    <path
       style="fill:#ffff00;fill-opacity:0.995283;fill-rule:nonzero;stroke:none;stroke-width:0.45861;stroke-linejoin:bevel;stroke-dasharray:none;stroke-opacity:0.603774;paint-order:stroke fill markers"
       d="m 29.493655,55.031454 c 1.142253,1.399267 2.78099,3.0419 5.076596,4.435871 1.771346,1.075621 3.92958,1.994844 6.387154,2.437943 2.176961,0.392503 4.549945,0.401873 6.965714,-0.07706 2.255545,-0.447166 4.523493,-1.317357 6.598987,-2.657481 2.01705,-1.302389 3.804147,-3.01688 5.239182,-5.033743 1.434001,-2.015409 2.500423,-4.310943 3.089593,-6.74832 0.607001,-2.511143 0.691755,-5.094638 0.331163,-7.564991 -0.385774,-2.642878 -1.274007,-5.119869 -2.544042,-7.285664 -1.498902,-2.545848 -3.457166,-4.557531 -5.478981,-6.043118 -2.624995,-1.928791 -5.299274,-2.943071 -7.5094,-3.408208 -1.831584,-0.38547 -4.954529,0.10024 -7.96872,1.558364 -2.85812,1.382625 -4.995248,3.453544 -6.17002,4.225644 1.305831,-0.858237 3.978617,-1.329953 6.785144,-0.974764 2.665871,0.337388 4.883021,1.432889 5.990824,1.666035 1.479622,0.311397 3.358876,0.905535 5.309391,2.119822 1.506228,0.937698 3.033842,2.240803 4.28114,3.937891 1.067998,1.44591 1.939738,3.190671 2.468269,5.162039 0.493511,1.840748 0.674953,3.838899 0.442686,5.853514 -0.225748,1.95806 -0.843229,3.917175 -1.826179,5.737824 -0.981959,1.818814 -2.30748,3.459349 -3.903354,4.788822 -1.645026,1.37042 -3.551954,2.389119 -5.554006,3.032273 -2.140716,0.6877 -4.336821,0.930597 -6.426318,0.772763 C 38.714677,60.78836 36.55183,60.105805 34.72788,59.183692 32.364356,57.988791 30.64175,56.437878 29.493655,55.031454 Z"
       id="path17278"
       inkscape:path-effect="#path-effect17280;#path-effect17282"
       inkscape:original-d="M 29.493655,55.031454 C 40.980459,48.939412 69.945354,22.669304 58.257691,34.078846 37.962815,53.890783 34.278142,48.717586 33.510881,28.870695"
       inkscape:linked-fill="path17286"
       class="UnoptimicedTransforms"
       transform="matrix(0.61476799,-0.81155501,0.79711409,0.60382872,-36.932466,45.808344)"
       sodipodi:nodetypes="csc" />
  </g>
</svg>
