<?xml version="1.0" encoding="UTF-8" standalone="no"?>
<!-- Created with Inkscape (http://www.inkscape.org/) -->

<svg
   width="210mm"
   height="297mm"
   viewBox="0 0 210 297"
   version="1.1"
   id="svg5"
   inkscape:version="1.2.2 (732a01da63, 2022-12-09)"
   sodipodi:docname="setting.svg"
   xmlns:inkscape="http://www.inkscape.org/namespaces/inkscape"
   xmlns:sodipodi="http://sodipodi.sourceforge.net/DTD/sodipodi-0.dtd"
   xmlns="http://www.w3.org/2000/svg"
   xmlns:svg="http://www.w3.org/2000/svg">
  <sodipodi:namedview
     id="namedview7"
     pagecolor="#ffffff"
     bordercolor="#000000"
     borderopacity="0.25"
     inkscape:showpageshadow="2"
     inkscape:pageopacity="0.0"
     inkscape:pagecheckerboard="0"
     inkscape:deskcolor="#d1d1d1"
     inkscape:document-units="mm"
     showgrid="false"
     inkscape:zoom="1.9653759"
     inkscape:cx="540.10024"
     inkscape:cy="476.24477"
     inkscape:window-width="1920"
     inkscape:window-height="974"
     inkscape:window-x="-11"
     inkscape:window-y="-11"
     inkscape:window-maximized="1"
     inkscape:current-layer="layer1" />
  <defs
     id="defs2" />
  <g
     inkscape:label="图层 1"
     inkscape:groupmode="layer"
     id="layer1">
    <path
       id="path4897"
       style="fill:#999999;fill-opacity:0.995283;stroke:#999999;stroke-width:10;stroke-dasharray:20,10;paint-order:fill markers stroke;stroke-dashoffset:0"
       d="M 129.99982 100.0001 A 30 30 0 0 0 100.0001 129.99982 A 30 30 0 0 0 129.99982 160.00005 A 30 30 0 0 0 160.00005 129.99982 A 30 30 0 0 0 129.99982 100.0001 z M 129.99982 110 A 20 20 0 0 1 150.00015 129.99982 A 20 20 0 0 1 129.99982 150.00015 A 20 20 0 0 1 110 129.99982 A 20 20 0 0 1 129.99982 110 z " />
  </g>
</svg>
